<?xml version="1.0" standalone="no"?>
<!DOCTYPE svg PUBLIC "-//W3C//DTD SVG 20010904//EN"
 "http://www.w3.org/TR/2001/REC-SVG-20010904/DTD/svg10.dtd">
<svg version="1.0" xmlns="http://www.w3.org/2000/svg"
 width="478.000000pt" height="535.000000pt" viewBox="0 0 478.000000 535.000000"
 preserveAspectRatio="xMidYMid meet">

<g transform="translate(0.000000,535.000000) scale(0.100000,-0.100000)"
fill="#000000" stroke="none">
<path d="M0 2675 l0 -2675 1187 0 c1078 0 1185 1 1165 16 -51 36 -9 71 63 53
68 -17 137 -7 171 24 34 31 64 34 87 9 21 -23 22 -51 1 -80 l-15 -22 79 0 80
0 -9 38 c-5 20 -9 48 -9 61 0 21 3 23 33 18 20 -3 55 2 88 14 68 23 92 24 111
2 43 -50 24 -95 -50 -117 -42 -13 55 -14 876 -15 l922 -1 0 2675 0 2675 -2390
0 -2390 0 0 -2675z m2535 2426 c22 -10 55 -32 73 -50 28 -29 30 -34 17 -47 -8
-9 -15 -21 -15 -27 0 -7 5 -5 10 5 8 14 15 14 40 5 35 -13 44 -33 34 -82 -7
-38 -22 -54 -33 -36 -4 6 -15 9 -24 5 -9 -3 -17 -2 -17 4 0 5 -9 12 -20 15
-13 3 -18 10 -14 21 7 18 30 21 39 6 3 -5 10 -10 15 -10 19 0 -97 98 -124 104
-39 10 -55 28 -59 70 -4 31 -1 36 17 36 11 0 39 -9 61 -19z m-279 -40 c-9 -10
-21 -35 -27 -55 -7 -26 -15 -36 -30 -36 -17 0 -18 3 -8 23 6 12 25 37 42 55
33 34 52 46 23 13z m129 -7 c-1 -15 3 -28 11 -31 8 -3 14 -12 14 -20 0 -10 6
-12 19 -8 11 3 23 1 26 -6 6 -8 10 -7 16 2 7 12 11 11 26 -3 16 -17 15 -18
-40 -18 -55 0 -57 1 -71 33 -26 64 -28 77 -13 77 10 0 14 -8 12 -26z m61 4 c4
-7 2 -8 -4 -4 -7 4 -12 3 -12 -3 0 -6 -7 -8 -15 -5 -8 4 -15 9 -15 13 0 11 39
10 46 -1z m-111 -45 c0 -23 4 -28 25 -28 16 0 26 -6 28 -17 3 -13 -1 -16 -14
-11 -13 5 -15 3 -9 -8 4 -8 -1 -5 -12 7 -39 39 -55 84 -30 84 7 0 13 -11 12
-27z m129 2 c-4 -8 -10 -12 -15 -9 -11 6 -2 24 11 24 5 0 7 -7 4 -15z m46 -64
c0 -5 -15 -12 -32 -16 -64 -14 -78 -14 -78 1 0 10 10 14 35 12 19 -1 37 1 41
5 10 10 34 9 34 -2z m44 -27 c9 -3 16 -13 16 -20 0 -8 7 -17 15 -20 16 -7 20
-41 6 -62 -6 -10 -12 -7 -24 11 -8 13 -29 30 -46 37 -37 15 -38 24 -9 44 26
19 22 18 42 10z m-149 -26 c18 -5 19 -6 2 -13 -18 -7 -47 9 -47 27 0 7 4 7 13
0 6 -5 21 -12 32 -14z m97 -34 c18 -9 39 -26 49 -38 16 -19 16 -21 -1 -33 -16
-11 -24 -10 -54 9 -19 13 -35 30 -36 39 0 8 -5 20 -12 27 -18 18 16 16 54 -4z
m285 -26 c38 -37 41 -48 12 -48 -16 0 -19 -4 -14 -22 5 -18 -3 -14 -34 19 -44
45 -51 69 -23 76 9 3 19 5 22 6 2 0 19 -13 37 -31z m-577 -126 c0 -13 -3 -12
-15 4 -19 25 -19 40 0 24 8 -7 15 -20 15 -28z m1777 -958 c12 -38 22 -77 22
-86 1 -10 -36 -96 -81 -193 -61 -129 -84 -168 -86 -150 -8 58 93 508 112 502
6 -2 21 -35 33 -73z m-606 -90 l41 -85 -66 -197 c-63 -190 -65 -195 -62 -132
3 36 16 119 30 185 31 146 30 135 5 135 -20 0 -21 4 -15 48 4 26 9 66 13 90 3
23 7 42 10 42 2 0 22 -39 44 -86z m850 17 c-32 -58 -328 -427 -337 -418 -2 2
35 87 84 189 l87 186 70 30 c84 37 110 41 96 13z m-686 -66 c19 -41 35 -80 35
-87 0 -21 -112 -372 -122 -383 -12 -12 -2 191 18 390 8 77 14 143 14 148 0 4
4 7 10 7 5 0 25 -34 45 -75z m181 -21 c19 -40 34 -78 34 -85 0 -16 -119 -381
-127 -388 -8 -9 6 264 23 409 7 69 14 131 14 138 0 27 24 -3 56 -74z m-86 51
c0 -10 -40 -84 -48 -89 -4 -2 -13 9 -19 25 -11 28 -10 31 20 50 32 19 47 24
47 14z m-1356 -80 c77 -43 113 -44 183 -5 59 34 80 37 109 15 10 -8 31 -15 46
-15 19 0 35 -10 50 -31 13 -17 24 -35 24 -40 1 -5 2 -14 3 -20 0 -5 5 -8 9 -5
5 3 17 -9 27 -26 13 -23 18 -51 17 -109 0 -88 -8 -104 -88 -179 -48 -45 -48
-45 -21 -48 32 -4 33 -11 7 -45 -26 -33 -25 -40 6 -34 20 4 24 1 18 -12 -3 -9
-9 -24 -12 -35 -4 -16 -2 -17 17 -7 20 11 21 9 21 -22 0 -27 5 -36 25 -45 28
-13 64 -81 65 -121 0 -20 -2 -22 -15 -11 -21 17 -29 7 -16 -18 14 -27 14 -59
-2 -104 -19 -54 -24 -55 -42 -12 -14 32 -18 36 -24 21 -6 -16 -9 -16 -31 8
-13 14 -29 24 -36 21 -7 -3 -20 4 -30 15 -9 10 -23 19 -29 19 -7 0 -24 9 -38
20 -14 11 -32 20 -41 20 -8 0 -30 9 -48 20 -42 26 -58 25 -116 -4 -26 -13 -53
-21 -60 -19 -7 3 -21 -2 -30 -10 -9 -8 -27 -18 -39 -21 -11 -4 -27 -13 -33
-21 -7 -8 -20 -15 -30 -15 -9 0 -25 -9 -35 -20 -14 -15 -21 -17 -32 -9 -7 6
-13 10 -13 8 0 -2 -6 -21 -14 -42 l-13 -39 -18 38 c-12 26 -16 53 -13 95 4 53
3 57 -14 48 -15 -8 -18 -6 -18 11 0 43 59 130 88 130 11 0 13 8 9 33 -5 32 -4
34 21 29 26 -5 26 -5 10 20 -17 25 -17 26 14 32 l32 6 -27 28 c-35 36 -34 42
6 42 l32 0 -58 51 c-75 67 -86 90 -86 180 0 78 22 137 40 108 6 -10 9 -8 9 9
0 55 75 129 109 107 6 -3 11 1 11 9 0 14 25 35 43 36 5 0 37 -16 71 -35z
m1500 -12 l-17 -27 -9 23 c-5 13 -7 25 -6 26 2 1 12 7 23 13 27 15 31 -2 9
-35z m-700 -50 l56 -67 0 -211 c0 -125 -4 -204 -9 -195 -12 20 -77 283 -95
385 -26 145 -27 155 -17 155 5 0 35 -30 65 -67z m221 -101 c-27 -124 -77 -310
-94 -352 -7 -18 -10 33 -10 180 l-1 204 63 64 c76 77 79 71 42 -96z m546 80
c-5 -15 -14 -67 -21 -116 -13 -82 -18 -97 -72 -179 -33 -49 -61 -88 -63 -85
-2 2 7 35 20 73 13 39 40 124 61 190 32 107 52 145 75 145 4 0 4 -12 0 -28z
m-402 -94 c-7 -92 -10 -101 -49 -159 -23 -33 -43 -59 -45 -57 -2 2 19 75 46
162 28 86 52 156 54 154 1 -2 -1 -47 -6 -100z m186 65 c-2 -21 -7 -72 -10
-114 -6 -70 -11 -83 -53 -148 -46 -70 -71 -93 -52 -48 5 12 32 95 60 185 28
89 53 162 56 162 2 0 2 -17 -1 -37z m-1782 -160 c18 -21 47 -98 47 -128 0 -11
-12 4 -27 35 -28 53 -56 81 -69 68 -16 -16 -16 -97 0 -119 9 -13 16 -33 16
-44 0 -12 9 -31 21 -43 13 -15 18 -29 14 -43 -9 -26 -25 -13 -60 46 -28 49
-33 109 -14 195 9 42 14 50 33 50 13 0 30 -8 39 -17z m1124 -38 c22 -87 17
-142 -19 -202 -18 -29 -35 -53 -39 -53 -19 0 -20 53 -1 86 8 15 8 29 1 50 -8
21 -8 37 0 57 12 31 31 36 31 8 0 -11 5 -23 10 -26 13 -8 13 10 -1 58 -5 20
-14 37 -19 37 -5 0 -21 -17 -36 -37 -44 -60 -45 -60 -28 -8 34 101 79 114 101
30z m-1097 -156 c0 -11 -4 -17 -10 -14 -5 3 -10 15 -10 26 0 11 5 17 10 14 6
-3 10 -15 10 -26z m1015 13 c0 -18 -20 -15 -23 4 -3 10 1 15 10 12 7 -3 13
-10 13 -16z m845 -353 c0 -22 4 -38 9 -34 15 9 24 -15 27 -69 1 -28 3 -58 5
-66 3 -9 -2 -14 -11 -12 -47 11 -57 11 -78 0 -16 -8 -28 -9 -39 -2 -37 23 -37
39 -3 120 38 92 46 104 71 104 16 0 19 -8 19 -41z m-147 -108 c6 -6 4 -24 -6
-48 -12 -32 -21 -39 -51 -44 -20 -3 -39 -2 -42 2 -2 4 -20 5 -39 2 -23 -4 -35
-2 -35 6 0 6 -18 10 -47 10 -27 -1 -92 10 -146 23 l-99 24 79 17 c43 9 89 19
103 21 43 8 273 -3 283 -13z m-333 -582 c32 -9 55 -24 80 -54 l35 -42 34 20
c33 18 36 18 73 1 38 -17 99 -95 97 -125 0 -10 -2 -11 -6 -1 -9 22 -23 13 -14
-10 6 -16 -1 -35 -24 -74 -18 -29 -38 -67 -45 -83 -13 -31 -33 -43 -121 -65
-73 -19 -295 -18 -367 0 -73 19 -122 18 -173 -5 -24 -11 -66 -21 -94 -23 -48
-3 -50 -2 -53 25 -2 15 -8 25 -13 22 -5 -4 -9 7 -9 23 0 32 36 93 60 100 11 4
9 -2 -5 -19 l-20 -24 23 19 c12 11 20 21 18 24 -6 6 24 36 49 50 17 9 17 10
-7 9 -14 -1 -24 -6 -21 -10 2 -4 -11 -7 -31 -5 -27 1 -33 5 -25 14 6 7 18 10
26 7 10 -4 14 -2 10 4 -4 5 5 15 19 22 14 6 22 16 19 21 -3 6 -1 10 6 10 7 0
9 3 5 7 -4 5 -13 1 -19 -7 -15 -19 -71 -50 -90 -50 -8 0 -18 -7 -21 -16 -4 -9
-9 -14 -13 -11 -3 4 -12 2 -20 -4 -10 -9 -13 -5 -13 22 0 57 119 153 253 204
118 44 286 55 397 24z m-1079 -134 c59 -60 69 -65 69 -35 0 20 0 20 41 -1 23
-11 52 -23 65 -25 21 -4 24 0 24 26 0 33 6 36 34 15 22 -17 29 -42 15 -51 -14
-8 0 -24 16 -17 9 3 15 -1 15 -11 0 -9 -5 -16 -11 -16 -6 0 -17 -7 -26 -15
-18 -19 -94 -12 -132 12 -13 8 -21 10 -17 5 4 -7 -5 -9 -28 -5 -56 9 -316 -8
-287 -19 13 -4 77 -6 143 -3 66 3 118 1 118 -4 0 -12 44 -23 108 -27 30 -2 59
-8 66 -13 7 -6 16 -8 19 -4 4 3 7 2 7 -4 0 -5 16 -18 35 -29 35 -19 45 -34 23
-34 -7 0 4 -11 24 -25 20 -14 39 -34 43 -45 5 -16 15 -20 46 -20 28 0 39 -4
39 -15 0 -8 -6 -15 -12 -15 -9 0 -9 -3 1 -9 24 -16 4 -40 -36 -43 l-38 -3 4
-132 c2 -107 0 -133 -10 -134 -8 -1 -31 -2 -53 -3 l-38 -1 5 69 c4 42 2 77 -5
89 -10 20 -11 20 -23 -4 -8 -13 -16 -23 -19 -21 -16 6 -24 0 -19 -18 5 -17 2
-18 -26 -10 l-31 9 0 -55 c0 -47 -3 -54 -19 -54 -11 0 -26 -2 -34 -5 -9 -4
-27 20 -56 79 -56 110 -73 118 -70 33 4 -110 5 -107 -46 -107 -31 0 -47 -5
-51 -15 -4 -8 -15 -15 -25 -15 -11 0 -16 5 -14 13 4 9 -18 12 -89 12 -52 0
-98 -3 -102 -7 -4 -5 -16 -8 -27 -8 -14 0 -17 4 -12 18 4 9 10 30 13 46 4 25
8 28 36 23 17 -2 37 -2 44 0 17 7 15 33 -3 33 -8 0 -15 5 -15 10 0 6 -8 10
-19 10 -10 0 -24 7 -31 15 -8 9 -23 12 -43 9 -25 -4 -21 0 17 15 100 41 128
101 51 111 -32 4 -40 9 -38 24 1 10 -7 27 -16 38 -10 10 -30 43 -45 72 -34 67
-29 118 13 141 14 8 20 14 12 15 -10 0 -11 3 -2 14 10 12 9 14 -7 9 -14 -3
-21 2 -25 17 -5 19 -2 21 19 16 22 -6 23 -4 14 18 -8 23 -6 26 40 41 27 9 50
21 52 26 6 17 142 45 234 48 37 1 46 -4 95 -54z m320 -102 c13 -16 12 -17 -3
-4 -10 7 -18 15 -18 17 0 8 8 3 21 -13z m-1501 -167 c0 -2 -24 -19 -52 -37
-51 -33 -52 -34 -24 -37 26 -3 28 -5 21 -40 -4 -20 -33 -123 -66 -228 -60
-194 -67 -221 -49 -194 16 26 12 -6 -15 -105 -14 -49 -32 -118 -41 -152 -16
-61 -29 -74 -51 -52 -7 7 -17 0 -33 -26 -12 -20 -26 -33 -31 -28 -8 8 -44 104
-124 328 -25 72 -62 172 -81 224 -19 52 -33 96 -31 98 2 1 14 -15 26 -38 41
-73 32 -34 -17 77 -27 60 -53 120 -57 132 l-7 24 124 -4 c116 -3 123 -4 120
-23 -7 -40 -1 -82 31 -215 36 -145 38 -145 53 -12 5 48 9 60 19 52 10 -8 14 6
19 62 14 146 3 132 129 166 112 30 137 36 137 28z m130 -91 c-15 -19 -13 -19
40 0 l43 15 -6 -57 c-4 -32 -12 -98 -17 -148 -9 -72 -8 -122 6 -253 12 -112
14 -166 7 -170 -7 -5 -7 -25 0 -64 6 -32 8 -60 6 -62 -2 -2 -37 -6 -78 -10
-60 -5 -72 -4 -68 7 4 11 -5 13 -44 9 -41 -4 -49 -2 -49 12 0 33 23 161 30
166 4 3 3 30 -2 61 -12 64 -1 332 13 323 13 -8 11 3 -11 91 -11 42 -17 81 -14
86 3 5 39 9 81 9 66 0 74 -2 63 -15z m257 1 c-5 -13 -1 -13 33 -1 22 8 41 11
44 7 2 -4 -2 -54 -10 -112 -17 -133 -17 -234 1 -385 10 -81 11 -121 4 -126
-11 -7 -2 -96 10 -103 4 -3 15 44 25 102 13 78 15 121 9 157 -10 55 7 302 20
289 11 -12 8 6 -13 76 -34 110 -34 110 61 110 70 0 80 -2 69 -15 -10 -12 -7
-13 22 -5 55 16 61 14 55 -22 -4 -18 -9 -66 -13 -105 -6 -64 -4 -73 10 -73 9
0 16 -6 16 -14 0 -8 5 -16 12 -18 17 -6 2 -38 -17 -38 -9 0 -14 3 -12 8 3 4 1
16 -4 27 -6 16 -8 13 -9 -15 -1 -111 1 -165 11 -254 8 -72 8 -100 0 -105 -8
-5 -8 -22 0 -64 7 -32 9 -60 6 -63 -3 -3 -40 -8 -84 -11 -68 -5 -76 -4 -66 8
10 13 3 14 -55 8 -190 -21 -202 -22 -202 -10 0 6 -18 11 -45 11 l-45 0 6 43
c3 23 12 68 19 99 11 42 12 71 4 115 -13 78 4 319 22 308 12 -8 12 -11 -11 63
-11 35 -20 77 -20 93 l0 29 76 0 c62 0 75 -3 71 -14z m1530 3 c10 -9 19 -9 36
-1 25 13 329 11 362 -3 37 -15 65 -48 65 -76 0 -15 -5 -29 -10 -31 -12 -4 18
-69 50 -108 l20 -25 18 23 c9 12 37 68 61 122 43 98 45 100 77 100 l33 0 0
-170 1 -170 -32 0 -31 0 7 46 c3 25 3 71 -1 102 l-6 55 -34 -84 c-19 -46 -41
-89 -49 -95 -7 -6 -11 -14 -7 -17 3 -4 -10 -7 -30 -7 -31 0 -40 6 -59 34 l-22
33 -32 -19 c-17 -10 -34 -27 -37 -38 -6 -22 -44 -17 -64 8 -12 14 -14 14 -25
0 -21 -26 -65 -31 -77 -10 -8 15 -101 72 -117 72 -2 0 -1 -13 2 -29 8 -38 -20
-91 -47 -91 -11 0 -29 5 -40 10 -13 8 -19 7 -19 0 0 -6 -4 -9 -9 -5 -5 3 -12
1 -16 -5 -3 -5 3 -10 14 -10 16 0 20 -7 19 -39 0 -39 -1 -40 -42 -43 l-41 -3
-8 -59 c-6 -39 -5 -62 2 -69 6 -6 11 -41 11 -79 l0 -67 -51 2 -51 2 6 72 c4
39 4 101 0 137 l-7 66 -38 0 c-34 0 -39 3 -39 23 0 40 11 44 109 45 92 0 116
9 108 37 -2 6 -52 14 -112 19 l-108 9 5 98 c3 54 2 96 -3 94 -4 -3 -5 3 -3 12
2 10 5 45 8 78 3 33 5 61 5 62 1 1 53 2 117 2 75 1 122 -3 131 -10z m1145 -23
l4 -34 -153 -1 c-84 -1 -160 -4 -168 -7 -9 -4 -15 -19 -15 -40 l0 -34 121 0
c77 0 118 -4 114 -10 -3 -5 -1 -10 4 -10 6 0 11 -7 11 -15 0 -13 -21 -15 -130
-15 l-130 0 0 -45 0 -45 161 0 c144 0 160 -2 155 -16 -4 -12 -2 -15 9 -10 10
4 15 -1 15 -15 0 -19 -6 -19 -197 -17 l-198 3 3 90 c2 50 6 98 9 109 4 13 2
16 -8 11 -9 -6 -11 -3 -6 9 4 10 7 40 7 67 l0 48 153 4 c83 1 171 4 193 5 41
2 42 1 46 -32z m379 -3 l48 -37 -1 -106 -1 -105 -41 -31 -41 -31 -159 -2 -159
-2 7 47 c3 26 6 102 6 170 l0 123 113 4 c61 1 127 4 146 5 26 1 46 -7 82 -35z
m-2036 -243 c8 -13 -5 -13 -25 0 -13 8 -13 10 2 10 9 0 20 -4 23 -10z m-645
-70 c-20 -13 -33 -13 -25 0 3 6 14 10 23 10 15 0 15 -2 2 -10z m462 -62 c106
2 108 2 108 -20 0 -13 2 -90 3 -173 l2 -150 -32 -3 c-36 -4 -37 -3 -33 101 l1
47 -60 0 -61 0 -2 -32 c-1 -18 0 -52 1 -76 l3 -43 -34 3 -33 3 2 173 c1 142
-1 172 -13 172 -8 0 -14 7 -14 15 0 13 4 13 27 -2 22 -15 46 -17 135 -15z
m-200 -17 c21 -17 24 -27 23 -81 -1 -82 -21 -99 -118 -100 l-69 0 2 -52 c4
-98 4 -100 -32 -96 l-33 3 2 163 c2 90 5 167 7 170 2 4 47 8 99 9 80 2 98 0
119 -16z m416 9 c7 0 35 -46 61 -101 l48 -101 8 94 c8 108 13 121 46 116 24
-3 24 -4 21 -113 -1 -60 -5 -138 -8 -172 -6 -62 -6 -63 -36 -63 -17 0 -28 3
-25 7 4 3 0 11 -8 17 -8 6 -34 48 -58 94 l-44 83 -6 -58 c-3 -31 -3 -77 0
-100 l6 -43 -36 0 -35 0 3 143 c5 230 2 210 28 203 12 -3 28 -6 35 -6z m753
-7 c0 -10 2 -85 4 -168 4 -158 2 -165 -43 -165 -21 0 -22 3 -20 73 l3 72 -64
3 -63 3 2 -58 c5 -94 4 -95 -32 -91 l-33 3 3 65 c1 36 5 82 8 104 5 30 3 37
-7 31 -9 -6 -11 -3 -6 9 4 10 7 44 7 77 l0 59 120 0 c107 0 120 -2 121 -17z
m126 4 c1 -1 22 -44 46 -95 l46 -93 5 43 c3 24 8 69 11 101 6 56 7 57 37 57
l31 0 -6 -112 c-4 -62 -7 -141 -7 -175 0 -61 -1 -63 -26 -63 -34 0 -42 9 -103
120 l-52 95 2 -85 c2 -138 3 -132 -32 -128 l-32 3 1 105 c1 58 2 136 2 174 l0
68 38 -7 c20 -4 38 -8 39 -8z m453 -4 c7 -318 7 -321 -14 -327 -46 -12 -49 -9
-43 48 9 89 4 96 -63 96 l-57 0 -6 -34 c-3 -19 -3 -53 0 -76 l6 -41 -34 3 -34
3 2 120 c1 66 2 143 3 170 l0 50 120 3 c109 2 120 1 120 -15z m101 7 c15 0 19
-5 15 -17 -2 -10 -7 -74 -11 -142 l-7 -124 82 5 c87 5 110 -4 110 -43 0 -18
-8 -19 -112 -19 -62 0 -118 4 -124 8 -8 5 -11 45 -9 127 2 66 4 142 4 169 1
40 4 47 17 42 9 -3 25 -6 35 -6z m-1265 -692 c30 -34 44 -74 44 -123 0 -42 -2
-46 -39 -65 -22 -11 -65 -23 -95 -26 -31 -4 -56 -11 -56 -15 0 -13 38 -11 100
6 30 8 61 15 68 15 24 0 12 -31 -20 -51 -27 -16 -42 -19 -83 -13 -27 3 -75 7
-106 8 -30 1 -60 6 -67 10 -17 10 -15 36 5 58 9 10 27 49 39 86 23 72 43 93
110 117 55 20 78 18 100 -7z m219 2 c11 -5 33 -13 49 -17 16 -5 34 -16 39 -24
14 -23 -20 -69 -55 -76 -39 -8 -46 -23 -10 -23 16 0 41 9 56 21 53 42 87 1 55
-68 -24 -52 -62 -68 -125 -52 -24 6 -55 23 -70 38 -24 24 -26 30 -19 81 3 30
6 70 5 89 -1 50 15 56 75 31z"/>
<path d="M2630 4951 c0 -6 5 -13 10 -16 6 -3 10 1 10 9 0 9 -4 16 -10 16 -5 0
-10 -4 -10 -9z"/>
<path d="M2590 3533 c-52 -19 -83 -39 -96 -65 -15 -30 -26 -31 -30 -3 -1 8 7
22 19 30 12 8 17 15 11 15 -6 0 -23 -9 -37 -20 -14 -11 -33 -20 -43 -20 -9 0
-14 -3 -11 -6 3 -4 0 -16 -8 -28 -19 -26 -19 -57 -1 -81 13 -18 14 -18 9 8 -3
15 0 34 7 42 14 17 55 21 45 5 -3 -5 -2 -10 3 -10 5 0 26 20 47 45 44 54 87
78 127 73 16 -3 25 -1 21 3 -13 11 -47 18 -63 12z"/>
<path d="M2097 3518 c-15 -11 -9 -12 33 -10 49 4 51 3 103 -51 44 -47 57 -54
80 -50 25 5 27 3 27 -26 0 -17 5 -31 10 -31 6 0 10 20 10 44 0 40 -3 45 -31
55 -40 14 -52 14 -44 1 14 -23 -14 -8 -29 15 -36 55 -119 82 -159 53z"/>
<path d="M2300 3510 c8 -5 26 -10 39 -10 32 0 24 6 -19 14 -25 4 -31 3 -20 -4z"/>
<path d="M2415 3510 c-28 -7 -28 -8 -5 -9 14 0 32 4 40 9 17 11 8 11 -35 0z"/>
<path d="M2285 3485 c17 -13 39 -24 50 -24 14 0 16 2 5 6 -8 3 -26 14 -39 24
-36 28 -51 23 -16 -6z"/>
<path d="M2578 3384 c-42 -46 -77 -64 -125 -64 l-38 -1 23 -18 c12 -11 22 -28
22 -40 0 -12 11 -25 28 -34 25 -12 32 -11 85 15 59 29 64 36 47 68 -8 15 -5
24 12 40 13 12 33 26 46 31 12 5 22 13 22 19 0 7 -6 8 -19 0 -11 -5 -34 -10
-52 -10 -27 0 -30 2 -19 15 26 31 -1 14 -32 -21z m29 -82 c9 -11 10 -19 2 -29
-16 -19 -32 -16 -47 7 -7 11 -21 20 -32 20 -21 0 -45 -34 -35 -50 3 -6 1 -10
-5 -10 -6 0 -10 12 -8 26 2 19 14 33 38 45 37 20 67 17 87 -9z"/>
<path d="M2050 3402 c0 -6 18 -21 39 -32 49 -24 55 -34 41 -61 -9 -16 -8 -24
5 -39 25 -28 72 -47 104 -42 26 3 28 6 22 35 -5 26 -12 33 -35 35 -21 3 -29
-1 -33 -17 -6 -23 -19 -26 -43 -11 -20 13 -2 42 33 54 21 8 32 4 61 -18 21
-15 36 -36 37 -49 1 -20 2 -20 6 -2 9 34 23 46 43 35 13 -7 21 -7 25 1 4 6 18
8 32 4 24 -6 24 -6 6 18 -17 24 -18 24 -31 6 -15 -21 -44 -26 -36 -6 3 10 -4
12 -29 9 -40 -4 -108 33 -128 70 -8 14 -14 18 -17 10 -5 -16 -74 -16 -90 0 -9
9 -12 9 -12 0z"/>
<path d="M2328 3273 c6 -2 10 -9 7 -13 -3 -5 3 -9 12 -9 45 -2 72 -7 79 -13 4
-5 -4 -8 -17 -9 -23 -1 -23 -1 6 -14 29 -14 29 -14 5 -15 -19 0 -22 -2 -10
-10 12 -8 12 -10 -3 -16 -9 -3 -29 -3 -44 1 -21 5 -24 8 -12 16 12 7 12 9 -1
9 -11 1 -10 4 5 16 19 15 18 15 -15 12 -21 -2 -34 -8 -32 -15 1 -8 -9 -13 -24
-13 -36 0 -114 -78 -114 -113 0 -32 15 -73 42 -113 20 -29 23 -30 65 -23 68
13 89 30 28 24 -53 -6 -68 1 -98 45 -27 39 -22 81 14 118 40 41 69 48 107 28
39 -20 75 -20 114 0 37 19 76 6 114 -39 33 -40 27 -90 -18 -130 -27 -26 -35
-28 -77 -23 l-46 7 44 -21 44 -20 33 25 c35 27 64 81 64 119 0 13 -16 41 -36
64 l-36 42 30 0 c16 0 40 9 53 19 24 19 23 19 -31 1 -75 -24 -121 -17 -143 22
-11 19 -23 28 -32 24 -8 -3 -27 1 -42 9 -15 8 -32 15 -38 14 -5 0 -4 -3 3 -6z"/>
<path d="M2398 3273 c7 -3 16 -2 19 1 4 3 -2 6 -13 5 -11 0 -14 -3 -6 -6z"/>
<path d="M2149 3211 c13 -12 35 -21 50 -20 24 1 23 2 -9 13 -19 6 -42 15 -50
19 -8 5 -4 -1 9 -12z"/>
<path d="M2310 3140 c0 -6 -13 -9 -29 -8 -39 3 -61 -18 -61 -58 l0 -33 25 24
c36 37 86 28 84 -14 0 -10 -4 -7 -9 7 -10 25 -25 28 -37 10 -22 -37 -9 -61 39
-73 20 -5 29 -2 37 13 15 28 14 68 -4 101 -14 29 -45 49 -45 31z"/>
<path d="M2420 3125 c-27 -29 -33 -110 -9 -126 15 -9 46 -3 67 14 20 16 11 62
-13 62 -11 0 -19 -6 -17 -12 1 -7 -2 -13 -8 -13 -14 0 -13 13 2 28 26 26 91 1
73 -28 -3 -5 -2 -10 3 -10 19 0 23 51 7 77 -13 20 -22 23 -42 18 -15 -3 -29
-2 -33 5 -4 6 -15 1 -30 -15z"/>
<path d="M2260 2902 c-69 -26 -102 -47 -140 -88 l-35 -38 39 33 c22 19 65 45
95 59 98 45 321 33 321 -17 0 -13 2 -13 9 -2 7 11 13 10 35 -4 14 -10 26 -25
27 -34 0 -11 2 -12 6 -3 4 10 8 10 21 0 10 -7 6 0 -8 15 -13 15 -53 42 -88 59
-55 27 -78 32 -151 35 -63 2 -98 -2 -131 -15z"/>
<path d="M2338 2874 c-4 -14 -16 -23 -39 -28 -39 -7 -99 -41 -99 -56 0 -7 6
-7 18 0 85 48 202 54 297 15 l60 -24 -28 24 c-31 27 -113 55 -163 55 -23 0
-34 5 -36 18 -3 14 -5 14 -10 -4z"/>
<path d="M2041 2759 c-1 -39 15 -54 47 -42 14 6 13 8 -8 13 -17 4 -27 15 -31
35 -6 29 -7 29 -8 -6z"/>
<path d="M2698 2763 c-4 -17 -14 -23 -33 -23 -15 0 -24 -4 -20 -10 9 -15 55
-12 61 4 3 8 4 23 2 33 -3 15 -5 15 -10 -4z"/>
<path d="M3095 1940 c-97 -9 -186 -27 -229 -46 -24 -12 -25 -14 -6 -9 136 32
472 43 455 14 -8 -12 122 -80 139 -73 9 3 13 10 10 15 -3 5 5 9 18 9 22 0 22
1 -7 25 -16 13 -41 24 -54 25 -14 0 -32 7 -42 16 -11 9 -48 20 -91 25 -81 9
-80 9 -193 -1z"/>
<path d="M2059 1568 c-1 -7 -2 -22 -3 -33 -1 -16 -9 -21 -43 -23 -45 -3 -49
-11 -52 -89 -1 -26 3 -33 17 -33 10 0 29 -12 43 -26 l24 -27 -25 6 c-14 3 -32
2 -40 -4 -13 -9 -13 -10 0 -7 8 1 29 -5 46 -14 16 -9 35 -13 41 -10 6 4 14 30
18 59 6 44 3 59 -15 91 l-22 40 21 21 c24 24 28 61 6 61 -8 0 -16 -6 -16 -12z"/>
<path d="M2179 1542 c7 -13 23 -21 51 -24 50 -5 52 5 3 21 -21 7 -44 15 -51
18 -11 4 -12 1 -3 -15z"/>
<path d="M2350 1500 c8 -5 26 -9 40 -9 23 0 23 1 5 9 -11 5 -29 9 -40 9 -17 1
-17 -1 -5 -9z"/>
<path d="M2430 1490 c-13 -8 -12 -10 3 -10 9 0 17 5 17 10 0 12 -1 12 -20 0z"/>
<path d="M2046 1274 c-9 -23 -8 -24 14 -24 13 0 20 7 20 20 0 24 -25 27 -34 4z"/>
<path d="M2740 1491 c0 -11 -3 -26 -6 -35 -4 -10 -1 -16 10 -16 10 0 13 6 10
15 -4 8 -1 15 5 15 5 0 15 9 21 20 9 18 8 20 -15 20 -18 0 -25 -5 -25 -19z"/>
<path d="M3080 1456 l-45 -10 39 -4 c21 -2 43 1 49 7 17 17 6 18 -43 7z"/>
<path d="M2846 1442 c7 -4 14 -18 15 -32 4 -24 2 -25 -53 -26 -79 -2 -88 -7
-88 -50 0 -35 1 -36 28 -30 65 15 102 18 102 8 0 -9 18 -15 75 -24 16 -2 21 3
23 30 l3 32 -98 0 c-70 0 -94 3 -83 11 8 5 44 9 80 8 91 -3 97 -1 103 21 9 33
-25 60 -74 60 -24 0 -39 -4 -33 -8z"/>
<path d="M3192 1426 l-22 -24 30 -7 c38 -8 43 -5 34 29 -8 32 -13 32 -42 2z"/>
<path d="M3300 1404 c0 -8 5 -12 10 -9 6 4 8 11 5 16 -9 14 -15 11 -15 -7z"/>
<path d="M4364 1530 c-5 -4 -53 -10 -106 -12 -54 -2 -99 -6 -102 -8 -2 -3 -6
-51 -8 -108 l-3 -103 134 3 135 3 7 28 c4 15 10 56 14 90 6 62 6 62 -28 89
-19 15 -38 23 -43 18z"/>
<path d="M2162 1108 c-7 -7 -12 -27 -12 -45 l0 -33 60 0 60 0 0 33 c0 18 -5
38 -12 45 -16 16 -80 16 -96 0z"/>
<path d="M1870 1099 c-6 -11 -10 -30 -8 -42 3 -20 9 -22 58 -22 l54 0 12 43
13 42 -59 0 c-50 0 -61 -3 -70 -21z"/>
<path d="M3026 1104 c-11 -29 -6 -62 10 -68 9 -3 33 -6 55 -6 38 0 39 1 39 35
0 24 -6 37 -19 45 -30 15 -78 12 -85 -6z"/>
<path d="M3603 1114 c-7 -3 -13 -23 -13 -45 l0 -39 61 0 60 0 -3 43 -3 42 -45
2 c-25 1 -51 0 -57 -3z"/>
<path d="M2644 93 c4 -7 2 -13 -3 -13 -6 0 -11 -6 -11 -14 0 -9 7 -12 20 -9
24 6 25 16 3 34 -11 10 -14 10 -9 2z"/>
<path d="M2820 70 c0 -13 5 -20 13 -17 6 2 12 10 12 17 0 7 -6 15 -12 18 -8 2
-13 -5 -13 -18z"/>
<path d="M2900 10 c-13 -8 -13 -10 2 -10 9 0 20 5 23 10 8 13 -5 13 -25 0z"/>
</g>
</svg>
